# xmcd
#
# Track frame offsets: 
#        150
#        31114
#        58699
#        74663
#        106258
#        151960
#        173088
#        207225
#        222913
#
# Disc length: 3391 seconds
#
# Revision: 1
# Processed by: cddbd v1.5PL3 Copyright (c) Steve Scherf et al.
# Submitted via: ExactAudioCopy v0.95a3
#
DISCID=7b0d3d09
DTITLE=Юрий Наумов - Фиолетовый Альбом
DYEAR=2004
DGENRE=Blues
TTITLE0=Песня Последнего Неба
TTITLE1=Та, с Которой Шел
TTITLE2=Ночной Полет (Часть I)
TTITLE3=Ночной Полет (Часть II)
TTITLE4=Поролоновый Город
TTITLE5=Сюрреалист
TTITLE6=Еще Один Несчастный День
TTITLE7=Ночной Полет (Часть I) (Bonus Track. Live.)
TTITLE8=Ночной Полет (Часть II) (Bonus Track. Live.)
EXTD=
EXTT0=
EXTT1=
EXTT2=
EXTT3=
EXTT4=
EXTT5=
EXTT6=
EXTT7=
EXTT8=
PLAYORDER=
